<svg width="100" height="100" viewBox="0 0 100 100" fill="none" xmlns="http://www.w3.org/2000/svg">
<rect width="100" height="100" fill="white"/>
<ellipse cx="48" cy="48.5" rx="46" ry="46.5" fill="white"/>
<path fill-rule="evenodd" clip-rule="evenodd" d="M48 28C43.5817 28 40 31.5817 40 36V46H38V40C38 35.5817 34.4183 32 30 32H29C24.5817 32 21 35.5817 21 40V53C21 53.1679 21.0052 53.3346 21.0154 53.5C21.0052 53.6654 21 53.8321 21 54V61C21 65.4183 24.5817 69 29 69H68C72.4183 69 76 65.4183 76 61V54C76 53.6613 75.979 53.3276 75.9381 53C75.979 52.6724 76 52.3387 76 52V40C76 35.5817 72.4183 32 68 32H67C62.5817 32 59 35.5817 59 40V46H57V36C57 31.5817 53.4183 28 49 28H48Z" fill="#2E4651"/>
<path fill-rule="evenodd" clip-rule="evenodd" d="M48 28C43.5817 28 40 31.5817 40 36V46H38V40C38 35.5817 34.4183 32 30 32H29C24.5817 32 21 35.5817 21 40V53C21 53.1679 21.0052 53.3346 21.0154 53.5C21.0052 53.6654 21 53.8321 21 54V61C21 65.4183 24.5817 69 29 69H68C72.4183 69 76 65.4183 76 61V54C76 53.6613 75.979 53.3276 75.9381 53C75.979 52.6724 76 52.3387 76 52V40C76 35.5817 72.4183 32 68 32H67C62.5817 32 59 35.5817 59 40V46H57V36C57 31.5817 53.4183 28 49 28H48Z" fill="#2E4651"/>
<path fill-rule="evenodd" clip-rule="evenodd" d="M48 28C43.5817 28 40 31.5817 40 36V46H38V40C38 35.5817 34.4183 32 30 32H29C24.5817 32 21 35.5817 21 40V53C21 53.1679 21.0052 53.3346 21.0154 53.5C21.0052 53.6654 21 53.8321 21 54V61C21 65.4183 24.5817 69 29 69H68C72.4183 69 76 65.4183 76 61V54C76 53.6613 75.979 53.3276 75.9381 53C75.979 52.6724 76 52.3387 76 52V40C76 35.5817 72.4183 32 68 32H67C62.5817 32 59 35.5817 59 40V46H57V36C57 31.5817 53.4183 28 49 28H48Z" fill="#2E4651"/>
<path fill-rule="evenodd" clip-rule="evenodd" d="M48 28C43.5817 28 40 31.5817 40 36V46H38V40C38 35.5817 34.4183 32 30 32H29C24.5817 32 21 35.5817 21 40V53C21 53.1679 21.0052 53.3346 21.0154 53.5C21.0052 53.6654 21 53.8321 21 54V61C21 65.4183 24.5817 69 29 69H68C72.4183 69 76 65.4183 76 61V54C76 53.6613 75.979 53.3276 75.9381 53C75.979 52.6724 76 52.3387 76 52V40C76 35.5817 72.4183 32 68 32H67C62.5817 32 59 35.5817 59 40V46H57V36C57 31.5817 53.4183 28 49 28H48Z" fill="#2E4651"/>
</svg>
